<svg viewBox="0 0 22 14" fill="currentColor" xmlns="http://www.w3.org/2000/svg" class="@w-[22]"><path d="M19.8611 0.70994H14.2886V2.27252H19.8831L19.8611 0.70994ZM18.685 11.4596C18.2623 11.742 17.7631 11.8853 17.2562 11.8697C16.9207 11.9049 16.5815 11.87 16.26 11.767C15.9385 11.664 15.6415 11.4953 15.3877 11.2712C14.9194 10.7341 14.6752 10.0352 14.7062 9.32077H21.9824C22.0343 8.57666 21.9713 7.82894 21.7955 7.10434C21.6245 6.41523 21.3262 5.76481 20.9162 5.18713C20.5023 4.62782 19.9689 4.16954 19.3555 3.84619C18.6719 3.50776 17.9187 3.33689 17.1573 3.34749C16.441 3.3428 15.7311 3.4822 15.0689 3.75753C14.4626 4.01492 13.9133 4.39168 13.4532 4.86575C12.9942 5.34905 12.6388 5.92244 12.4091 6.55023C12.1625 7.22796 12.0396 7.94507 12.0464 8.66692C12.0346 9.39905 12.1537 10.1273 12.3981 10.8169C12.6063 11.4409 12.935 12.0172 13.3653 12.5124C13.8114 12.998 14.3598 13.3767 14.97 13.6206C15.6505 13.882 16.3742 14.0099 17.1023 13.9974C18.1238 14.0295 19.1324 13.7599 20.004 13.2217C20.8849 12.5916 21.5189 11.6701 21.7955 10.6174H19.3665C19.2364 10.9655 18.9972 11.2613 18.685 11.4596ZM14.9151 6.89378C15.0006 6.61748 15.1426 6.36231 15.3319 6.14472C15.5212 5.92712 15.7536 5.75193 16.0142 5.63041C16.3595 5.47453 16.7351 5.39879 17.1133 5.40877C17.3865 5.38524 17.6616 5.42158 17.9196 5.51532C18.1777 5.60905 18.4125 5.75795 18.6081 5.9518C18.9821 6.41244 19.2218 6.96875 19.3005 7.55871H14.7392C14.757 7.3335 14.7975 7.1107 14.8601 6.89378H14.9151ZM9.10071 6.36183C9.66012 6.12696 10.1462 5.74407 10.5076 5.25362C10.8411 4.73336 11.0062 4.12156 10.9802 3.50264C11.0009 2.93844 10.8918 2.37707 10.6615 1.86248C10.4673 1.41689 10.1555 1.03357 9.76018 0.754269C9.34169 0.462658 8.86545 0.266047 8.3643 0.177997C7.77173 0.0523187 7.16723 -0.00714469 6.56174 0.00068316H0V13.942H6.70463C7.31646 13.9419 7.92581 13.8637 8.51818 13.7093C9.07918 13.5618 9.61084 13.3182 10.0899 12.989C10.5544 12.6661 10.932 12.232 11.189 11.7256C11.4752 11.1603 11.615 10.5314 11.5957 9.89704C11.6165 9.11102 11.3979 8.33746 10.9692 7.68061C10.5082 7.02003 9.8245 6.55125 9.04575 6.36183H9.10071ZM3.04456 2.38334H5.89128C6.15285 2.38206 6.41401 2.40431 6.67166 2.44984C6.90931 2.48411 7.13748 2.56709 7.34212 2.69364C7.54034 2.8067 7.70096 2.97636 7.80375 3.18126C7.93205 3.4266 7.99278 3.70213 7.97961 3.97917C8.00009 4.2177 7.96391 4.45772 7.87408 4.67935C7.78424 4.90097 7.64333 5.09783 7.46302 5.25362C7.06967 5.52628 6.59898 5.66243 6.1221 5.6415H3.04456V2.38334ZM8.3643 10.6285C8.2505 10.8537 8.07992 11.0448 7.8697 11.1826C7.65021 11.3202 7.40836 11.4178 7.15527 11.4707C6.87401 11.5345 6.58621 11.5643 6.29796 11.5594H3.0006V7.73602H6.29796C6.8638 7.71104 7.42259 7.87035 7.89168 8.19039C8.1036 8.38214 8.26777 8.62152 8.37088 8.88914C8.47399 9.15675 8.51316 9.44509 8.4852 9.73081C8.51371 10.0354 8.47234 10.3426 8.3643 10.6285Z"></path></svg>