<svg viewBox="0 0 22 22" fill="currentColor" xmlns="http://www.w3.org/2000/svg" class="@w-[22]"><path d="M10.9997 -0.00195312C17.0758 -0.00195312 22.0013 4.92347 22.0013 10.9997C22.0013 17.0758 17.0758 22.0013 10.9997 22.0013C4.92347 22.0013 -0.00195312 17.0758 -0.00195312 10.9997C-0.00195312 4.92347 4.92347 -0.00195312 10.9997 -0.00195312ZM12.7786 13.1824C9.97429 14.0081 7.52262 15.7398 5.8069 18.1067C7.31292 19.2106 9.13237 19.8043 10.9997 19.8009C12.1419 19.8017 13.2734 19.5801 14.3309 19.1485C13.9836 17.119 13.4643 15.1227 12.7786 13.1813V13.1824ZM14.9547 12.739C15.54 14.4366 16.0109 16.188 16.3563 17.9846C17.9707 16.7472 19.1066 14.9889 19.571 13.0085C18.0598 12.6501 16.4974 12.5589 14.9547 12.739ZM11.3858 9.80268C8.44212 10.8414 5.30398 11.2112 2.19947 10.8852L2.19837 10.9997C2.19837 13.1197 2.94868 15.0647 4.19736 16.5841C6.15137 13.9904 8.87414 12.0796 11.9777 11.124C11.7892 10.68 11.5919 10.2399 11.3858 9.80378V9.80268ZM18.1375 5.8498C16.7129 7.09448 15.1259 8.14002 13.42 8.95776C13.6774 9.50784 13.9224 10.0642 14.1549 10.6267C16.0252 10.3407 17.9505 10.4001 19.7987 10.8038C19.762 9.02191 19.1825 7.29362 18.1375 5.8498ZM7.2305 3.04549C6.08064 3.59198 5.06266 4.38083 4.24645 5.35788C3.43024 6.33494 2.83514 7.47706 2.50201 8.70582C5.15935 8.97471 7.84348 8.67468 10.3759 7.82569C9.45481 6.15202 8.40309 4.55366 7.2305 3.04549ZM10.9997 2.19837C10.4708 2.19837 9.9556 2.24348 9.45393 2.33369C10.5555 3.81351 11.5493 5.37058 12.4277 6.99287C13.9483 6.26903 15.3641 5.34313 16.6369 4.24027C15.0561 2.91838 13.0603 2.19545 10.9997 2.19837Z"></path></svg>