<svg viewBox="0 0 22 22" fill="currentColor" xmlns="http://www.w3.org/2000/svg" class="@w-[22]"><path d="M19.3333 1C19.7416 1.00005 20.1356 1.14993 20.4406 1.42119C20.7457 1.69246 20.9406 2.06625 20.9883 2.47167L21 2.66667V19.3333C20.9999 19.7416 20.8501 20.1356 20.5788 20.4406C20.3075 20.7457 19.9338 20.9406 19.5283 20.9883L19.3333 21H2.66667C2.25844 20.9999 1.86444 20.8501 1.55938 20.5788C1.25432 20.3075 1.05943 19.9338 1.01167 19.5283L1 19.3333V2.66667C1.00005 2.25844 1.14993 1.86444 1.42119 1.55938C1.69246 1.25432 2.06625 1.05943 2.47167 1.01167L2.66667 1H19.3333ZM19.3333 2.66667H2.66667V19.3333H19.3333V2.66667ZM13.9033 8.71667C16.4067 8.71667 16.87 10.3633 16.87 12.505L16.8667 16.8667H14.4L14.395 12.6667C14.3783 11.8167 14.2317 10.8917 13.1133 10.8917C11.9083 10.8917 11.66 11.775 11.6333 12.74L11.63 16.8667H9.16167V8.91667H11.5317V10H11.565C11.8023 9.59453 12.145 9.26094 12.5568 9.03468C12.9685 8.80842 13.4338 8.69961 13.9033 8.71667ZM7.61 8.915V16.8667H5.13667V8.915H7.61ZM6.375 4.96167C6.75514 4.96167 7.11972 5.11268 7.38852 5.38148C7.65732 5.65028 7.80833 6.01486 7.80833 6.395C7.80833 6.77514 7.65732 7.13972 7.38852 7.40852C7.11972 7.67732 6.75514 7.82833 6.375 7.82833C5.99486 7.82833 5.63028 7.67732 5.36148 7.40852C5.09268 7.13972 4.94167 6.77514 4.94167 6.395C4.94167 6.01486 5.09268 5.65028 5.36148 5.38148C5.63028 5.11268 5.99486 4.96167 6.375 4.96167Z"></path></svg>